<svg xmlns="http://www.w3.org/2000/svg" style = "fill: orange" viewBox="0 0 32 40" x="0px" y="0px"><title>ui-pack-icon-solid-arrow down 2-</title><g data-name="arrow down 2"><path d="M31,9a1.02412,1.02412,0,0,1-.29.71l-14,14a1.01409,1.01409,0,0,1-1.42,0l-14-14a1.00222,1.00222,0,0,1-.21-1.09A.98718.98718,0,0,1,2,8c6.4.02,14.77.05,20.68.05,3.88,0,6.69-.01,7.16-.04a1.0519,1.0519,0,0,1,.87.28A1.02437,1.02437,0,0,1,31,9Z"/></g><text x="0" y="47" fill="#000000" font-size="5px" font-weight="bold" font-family="'Helvetica Neue', Helvetica, Arial-Unicode, Arial, Sans-serif">Created by Braja Omar Justico</text><text x="0" y="52" fill="#000000" font-size="5px" font-weight="bold" font-family="'Helvetica Neue', Helvetica, Arial-Unicode, Arial, Sans-serif">from the Noun Project</text></svg>